<?xml version="1.0" encoding="UTF-8"?> 

<svg xmlns="http://www.w3.org/2000/svg" id="Layer_1" width="792px" height="612px" viewBox="0 0 792 612" xml:space="preserve"> 
  <path d="M584.976,167.344l-36.617-6.647l-5.947-16.209l19.475-27.872c7.904-11.72,6.543-27.37-3.265-37.55L533.432,53.41 c-10.104-9.667-25.566-11.024-37.2-3.265L467.427,69.97l-18.309-8.979l-6.88-37.201C439.537,10.102,427.618,0.177,413.667,0h-35.684 c-14.051,0.276-25.958,10.426-28.455,24.256l-6.647,37.551l-18.309,8.979l-29.037-20.408c-11.635-7.759-27.096-6.401-37.201,3.266 l-25.189,25.539c-9.784,10.133-11.191,25.711-3.382,37.434l19.475,28.221l-5.947,16.209l-36.851,6.297 c-13.792,2.745-23.799,14.743-24.023,28.804v36.034c0.06,14.193,10.103,26.382,24.023,29.154l32.652,5.131l10.146,23.323 l-20.174,29.97c-7.904,11.721-6.543,27.37,3.265,37.55l25.189,25.539c10.105,9.667,25.566,11.024,37.201,3.266l8.396-5.715 c16.193,19.232,25.109,43.546,25.189,68.688c-0.065,5.216,4.111,9.497,9.328,9.562c0.078,0.001,0.156,0.001,0.235,0h101.105v16.792 h-89.444c-10.323,0.128-18.606,8.568-18.542,18.893v28.804l0,0c-0.065,10.324,8.218,18.764,18.542,18.892h86.646l-40.815,41.049 l-23.323-24.022c-4.527-3.637-11.04-3.388-15.277,0.583c-4.521,4.548-4.521,11.895,0,16.442l0,0l32.419,33.003 c1.848,1.621,4.192,2.567,6.647,2.682c2.62,0.014,5.122-1.089,6.88-3.032l47.93-48.045c3.118-3.427,4.717-7.971,4.432-12.595v-16.56 c0-10.495-8.396-14.344-18.542-14.344h-81.631v-16.793h89.094c9.001,1.206,17.274-5.113,18.48-14.113 c0.171-1.275,0.191-2.565,0.062-3.846v-24.372c-0.111-10.721,1.104-21.414,3.615-31.837l0,0 c3.598-16.938,11.329-32.722,22.507-45.946l8.396,5.714c11.646,7.715,27.076,6.36,37.2-3.265l25.189-25.539 c9.808-10.181,11.168-25.83,3.265-37.55l-20.407-29.737l10.146-23.323l32.652-5.131c13.97-2.688,24.055-14.928,24.022-29.154 v-36.151C608.463,182.21,598.585,170.423,584.976,167.344z M480.021,301.685c-33.204,28.647-50.569,71.539-46.646,115.216 c0.583,4.548-6.646,4.548-7.229,0c-1.675-18.93,0.467-38.004,6.297-56.092c4.556-15.623,11.991-30.257,21.924-43.148 c13.761-17.375,32.069-28.454,38.134-51.311c1.864-5.716,2.694-11.718,2.448-17.726c-1.166-8.979-5.364-5.947-11.661-4.781 c-5.38,1.491-11.063,1.491-16.443,0c-2.318-0.599-4.472-1.715-6.297-3.265c-21.924,7.813-31.486-4.781-32.069-27.055 c0-4.198,0.933-39.649-11.661-25.539c-1.997,2.206-3.613,4.728-4.781,7.463c8.146,11.591,6.61,27.394-3.615,37.2 c-1.541,1.369-3.9,1.229-5.269-0.312c-0.169-0.191-0.319-0.399-0.446-0.62c-3.186-11.767-2.655-24.23,1.517-35.685 c-0.542-0.842-1.258-1.558-2.1-2.099c-8.746-8.046-11.661-3.032-12.245,6.647c0.864,10.439,0.354,20.947-1.516,31.253 c-1.75,5.947-8.979,15.043-16.21,10.495c-7.98-5.798-12.671-15.092-12.594-24.956c0.25-6.722-0.258-13.45-1.516-20.058 c-3.615-12.944-13.178-5.364-17.726,2.449c3.807,9.254,4.423,19.512,1.749,29.154c-7.463,20.408-20.991,6.88-16.792-9.913 c1.671-6.556,4.098-12.895,7.23-18.892c-1.254-2.933-3.077-5.589-5.364-7.813c-14.11-11.662-14.11,17.726-13.761,22.507 c1.205,9.875,1.205,19.861,0,29.737c-0.382,1.158-1.291,2.067-2.449,2.449c-26.122,7.813-13.761,34.985,1.166,47.346 c33.002,26.705,45.947,69.969,52.244,111.018c0.583,4.548-6.297,6.647-6.88,1.749c-5.947-39.649-18.309-81.631-50.378-107.636 c-7.39-5.838-13.17-13.464-16.793-22.157c-5.131-11.161-2.28-24.368,6.997-32.419c2.581-2.582,5.8-4.433,9.329-5.365v-0.583 c0-12.245-6.297-58.308,15.626-57.258c6.412,0.593,12.123,4.298,15.277,9.913c5.947-8.979,13.761-15.043,22.507-7.463 c6.012,7.153,8.723,16.513,7.463,25.772c-0.369,4.929,0.024,9.885,1.166,14.693c3.032,7.813,14.111,14.694,15.044,0.933 c0-2.099,0-4.198,0-6.297c0-7.813-3.849-42.565,13.527-36.617c3.938,1.54,7.513,3.882,10.495,6.88 c4.781-9.562,12.595-14.694,23.323-7.813c7.464,5.131,5.364,20.408,5.364,27.871c-0.801,7.522,0.24,15.126,3.032,22.157 c3.849,6.88,11.661,5.714,17.376,3.265c-3.274-7.31-4.523-15.365-3.615-23.323c0.745-13.971,8.573-26.593,20.758-33.469 c8.046-4.198,15.626-3.615,18.309,6.297c0.116,1.993-1.405,3.703-3.398,3.82c-1.475,0.086-2.854-0.734-3.482-2.071 c-2.682-10.146-18.542,7.23-19.824,10.146c-4.198,9.562-8.979,27.055-0.583,36.268l0,0l1.166,1.167 c11.661,8.979,24.256-7.23,32.652,3.615c13.645,17.842-5.015,52.944-18.542,64.372L480.021,301.685z"></path> 
  <path d="M336.001,209.909c-2.31,4.433-3.548,9.345-3.615,14.344c0.583,16.792,5.131-3.265,4.781-7.813 C336.896,214.243,336.506,212.063,336.001,209.909z"></path> 
  <path d="M407.137,223.203c2.712-5.523,3.131-11.895,1.166-17.726C406.74,211.25,406.344,217.275,407.137,223.203z"></path> 
</svg>